<svg viewBox="0 0 1200 910" xmlns="http://www.w3.org/2000/svg" role="img" font-family="'IBM Plex Sans Arabic','Inter',system-ui,sans-serif">
<title>Demand &amp; Supply Optimizer 目标架构</title>
<rect x="0" y="0" width="1200" height="910" fill="#ffffff"/>
<defs>
<marker id="ar" markerWidth="9" markerHeight="9" refX="6" refY="3" orient="auto" markerUnits="strokeWidth">
<path d="M0,0 L6,3 L0,6 Z" fill="#5b6b62"/>
</marker>
</defs>
<text x="40" y="34" fill="#152019" font-weight="700" font-size="22">Demand &amp; Supply Optimizer — 目标架构(方法论驱动重构)</text>
<text x="40" y="56" fill="#5b6b62" font-size="13">一条规范流水线 · AI 推荐人拍板 · 每个产出可解释可审计 · Coverage 横切 · DSO 为需求/供给/缺口/情景的 SSOT</text>

<rect x="40" y="72" width="955" height="68" rx="10" fill="#eaf5ef" stroke="#1B8354" stroke-width="1.4"/>
<text x="58" y="98" fill="#152019" font-weight="700" font-size="15">L1 · 数据底座 / 中央集成层</text>
<text x="58" y="120" fill="#5b6b62" font-size="12.5">11 源汇入可追溯中心层:Sakani · Wafi · Ejari · IDMS · MoF · MOJ · GASTAT · SEC · Private Mkt · Geo …(DS-01~11)</text>
<line x1="517" y1="140" x2="517" y2="160" stroke="#5b6b62" stroke-width="1.6" marker-end="url(#ar)"/>

<rect x="40" y="160" width="955" height="64" rx="10" fill="#eaf5ef" stroke="#1B8354" stroke-width="1.4"/>
<text x="58" y="186" fill="#152019" font-weight="700" font-size="15">L2 · 标准化 + 数据质量门</text>
<text x="58" y="208" fill="#5b6b62" font-size="12.5">Data Quality Monitor Agent(UC-05):清洗 · 去重 · 跨源一致性 · 断源/异常拦截 —— 不达标不进入分析</text>
<line x1="517" y1="224" x2="517" y2="244" stroke="#5b6b62" stroke-width="1.6" marker-end="url(#ar)"/>

<rect x="40" y="244" width="955" height="220" rx="10" fill="#eef0fc" stroke="#4f46e5" stroke-width="1.4"/>
<text x="58" y="270" fill="#152019" font-weight="700" font-size="15">L3 · 智能体分析层(编排)</text>
<rect x="300" y="282" width="435" height="40" rx="8" fill="#ffffff" stroke="#4f46e5" stroke-width="1.3"/>
<text x="517" y="307" fill="#152019" font-weight="700" font-size="13" text-anchor="middle">✦ Orchestrator Agent · 意图路由 + 模型注册表 (CAP-01/02)</text>
<g font-size="12">
<rect x="52" y="338" width="222" height="44" rx="8" fill="#ffffff" stroke="#4f46e5" stroke-width="1.1"/>
<text x="163" y="358" fill="#152019" font-weight="700" text-anchor="middle">Demand Intelligence</text>
<text x="163" y="374" fill="#5b6b62" text-anchor="middle" font-size="11">UC-02 / UC-08</text>
<rect x="288" y="338" width="222" height="44" rx="8" fill="#ffffff" stroke="#4f46e5" stroke-width="1.1"/>
<text x="399" y="358" fill="#152019" font-weight="700" text-anchor="middle">Supply-Demand Balancing</text>
<text x="399" y="374" fill="#5b6b62" text-anchor="middle" font-size="11">UC-03 / UC-06</text>
<rect x="524" y="338" width="222" height="44" rx="8" fill="#ffffff" stroke="#4f46e5" stroke-width="1.1"/>
<text x="635" y="358" fill="#152019" font-weight="700" text-anchor="middle">Strategic Supply Planning</text>
<text x="635" y="374" fill="#5b6b62" text-anchor="middle" font-size="11">UC-04 / UC-09</text>
<rect x="760" y="338" width="222" height="44" rx="8" fill="#ffffff" stroke="#4f46e5" stroke-width="1.1"/>
<text x="871" y="358" fill="#152019" font-weight="700" text-anchor="middle">Conversion &amp; Absorption</text>
<text x="871" y="374" fill="#5b6b62" text-anchor="middle" font-size="11">UC-04 早期预警</text>
<rect x="52" y="398" width="222" height="42" rx="8" fill="#f6f6ff" stroke="#9a93e8" stroke-width="1"/>
<text x="163" y="424" fill="#152019" text-anchor="middle">Policy Simulation · UC-06</text>
<rect x="288" y="398" width="222" height="42" rx="8" fill="#f6f6ff" stroke="#9a93e8" stroke-width="1"/>
<text x="399" y="424" fill="#152019" text-anchor="middle">Periodic Reports · UC-07</text>
<rect x="524" y="398" width="222" height="42" rx="8" fill="#f6f6ff" stroke="#9a93e8" stroke-width="1"/>
<text x="635" y="424" fill="#152019" text-anchor="middle">Macro Impact · UC-08</text>
<rect x="760" y="398" width="222" height="42" rx="8" fill="#f6f6ff" stroke="#9a93e8" stroke-width="1"/>
<text x="871" y="424" fill="#152019" text-anchor="middle">Knowledge Mgmt · UC-10</text>
</g>
<line x1="517" y1="464" x2="517" y2="484" stroke="#5b6b62" stroke-width="1.6" marker-end="url(#ar)"/>

<rect x="40" y="484" width="955" height="92" rx="10" fill="#fbf3e4" stroke="#b9770e" stroke-width="1.5"/>
<text x="58" y="510" fill="#152019" font-weight="700" font-size="15">L4 · 人工复核与治理门 —— AI 推荐 → 阈值触发暂停 → 人工批准(最小权限 · 三权分离)</text>
<g font-size="12">
<rect x="58" y="524" width="168" height="36" rx="18" fill="#ffffff" stroke="#b9770e"/><text x="142" y="547" fill="#152019" text-anchor="middle">置信 &lt; 70%</text>
<rect x="238" y="524" width="168" height="36" rx="18" fill="#ffffff" stroke="#b9770e"/><text x="322" y="547" fill="#152019" text-anchor="middle">缺口 &gt; 30%</text>
<rect x="418" y="524" width="168" height="36" rx="18" fill="#ffffff" stroke="#b9770e"/><text x="502" y="547" fill="#152019" text-anchor="middle">吸纳骤降 &gt; 40%</text>
<rect x="598" y="524" width="168" height="36" rx="18" fill="#ffffff" stroke="#b9770e"/><text x="682" y="547" fill="#152019" text-anchor="middle">偏差 &gt; 25%</text>
<rect x="778" y="524" width="204" height="36" rx="18" fill="#ffffff" stroke="#b9770e"/><text x="880" y="547" fill="#152019" text-anchor="middle">断源 &gt; 24h → Data Mgr</text>
</g>
<line x1="517" y1="576" x2="517" y2="596" stroke="#5b6b62" stroke-width="1.6" marker-end="url(#ar)"/>

<rect x="40" y="596" width="955" height="84" rx="10" fill="#eaf5ef" stroke="#1B8354" stroke-width="1.4"/>
<text x="58" y="622" fill="#152019" font-weight="700" font-size="15">L5 · 产出与分发</text>
<g font-size="12">
<rect x="58" y="634" width="150" height="34" rx="17" fill="#ffffff" stroke="#1B8354"/><text x="133" y="656" fill="#152019" text-anchor="middle">NL 对话回答</text>
<rect x="220" y="634" width="150" height="34" rx="17" fill="#ffffff" stroke="#1B8354"/><text x="295" y="656" fill="#152019" text-anchor="middle">share-ready PDF</text>
<rect x="382" y="634" width="150" height="34" rx="17" fill="#ffffff" stroke="#1B8354"/><text x="457" y="656" fill="#152019" text-anchor="middle">周期报告</text>
<rect x="544" y="634" width="150" height="34" rx="17" fill="#ffffff" stroke="#1B8354"/><text x="619" y="656" fill="#152019" text-anchor="middle">早期预警</text>
<rect x="706" y="634" width="276" height="34" rx="17" fill="#ffffff" stroke="#1B8354"/><text x="844" y="656" fill="#152019" text-anchor="middle">SSOT 接口 → AI_H_03 / CoPilot(AI_H_04)</text>
</g>

<rect x="1010" y="72" width="180" height="608" rx="10" fill="none" stroke="#cdd8d0" stroke-width="1.4" stroke-dasharray="5 4"/>
<text x="1100" y="96" fill="#152019" font-weight="700" font-size="13" text-anchor="middle">横切层</text>
<g font-size="11.5">
<rect x="1022" y="108" width="156" height="120" rx="8" fill="#ffffff" stroke="#cdd8d0"/>
<text x="1100" y="150" fill="#152019" font-weight="700" text-anchor="middle">Coverage 镜头</text>
<text x="1100" y="170" fill="#5b6b62" text-anchor="middle">部委 95%</text><text x="1100" y="186" fill="#5b6b62" text-anchor="middle">私有 80%</text><text x="1100" y="202" fill="#5b6b62" text-anchor="middle">全市场</text>
<rect x="1022" y="240" width="156" height="120" rx="8" fill="#ffffff" stroke="#cdd8d0"/>
<text x="1100" y="288" fill="#152019" font-weight="700" text-anchor="middle">可解释</text>
<text x="1100" y="310" fill="#5b6b62" text-anchor="middle">来源 + 置信</text><text x="1100" y="326" fill="#5b6b62" text-anchor="middle">+ 推理理由</text>
<rect x="1022" y="372" width="156" height="120" rx="8" fill="#ffffff" stroke="#cdd8d0"/>
<text x="1100" y="420" fill="#152019" font-weight="700" text-anchor="middle">审计 &amp; 血缘</text>
<text x="1100" y="442" fill="#5b6b62" text-anchor="middle">每次导出/审批</text><text x="1100" y="458" fill="#5b6b62" text-anchor="middle">留痕 + lineage</text>
<rect x="1022" y="504" width="156" height="120" rx="8" fill="#ffffff" stroke="#cdd8d0"/>
<text x="1100" y="552" fill="#152019" font-weight="700" text-anchor="middle">知识闭环</text>
<text x="1100" y="574" fill="#5b6b62" text-anchor="middle">UC-10 沉淀</text><text x="1100" y="590" fill="#5b6b62" text-anchor="middle">+ 主动洞察</text>
</g>

<text x="40" y="712" fill="#152019" font-weight="700" font-size="14">UI 重构 · 每个 persona(分析师 / 规划经理 / 领导)= 工作台 + Flow + Workbench</text>
<g font-size="12">
<rect x="40" y="724" width="370" height="150" rx="10" fill="#ffffff" stroke="#4f46e5" stroke-width="1.2"/>
<text x="58" y="750" fill="#152019" font-weight="700" font-size="13.5">① Persona 工作台首页</text>
<text x="58" y="774" fill="#5b6b62">按角色与权限框定整条流水线</text>
<text x="58" y="794" fill="#5b6b62">分析师重查询 · 规划重缺口/计划</text>
<text x="58" y="814" fill="#5b6b62">领导重预警/执行看板</text>
<rect x="430" y="724" width="370" height="150" rx="10" fill="#ffffff" stroke="#4f46e5" stroke-width="1.2"/>
<text x="448" y="750" fill="#152019" font-weight="700" font-size="13.5">② Multi-Agent Flow</text>
<text x="448" y="774" fill="#5b6b62">把 L1→L5 流水线显形:</text>
<text x="448" y="794" fill="#5b6b62">数据门 → 质量门 → 路由 → 分析</text>
<text x="448" y="814" fill="#5b6b62">→ 阈值触发暂停待批 → 产出</text>
<rect x="820" y="724" width="370" height="150" rx="10" fill="#ffffff" stroke="#1B8354" stroke-width="1.2"/>
<text x="838" y="750" fill="#152019" font-weight="700" font-size="13.5">③ Analysis Workbench</text>
<text x="838" y="774" fill="#5b6b62">诊断 → 归因 → 量化影响 → 处方</text>
<text x="838" y="794" fill="#5b6b62">(AiRec)+ 可解释/审计抽屉</text>
<text x="838" y="814" fill="#5b6b62">顶部 Coverage 切换实时重算</text>
</g>
</svg>
